<svg width="30" height="30" viewBox="0 0 30 30" fill="none" xmlns="http://www.w3.org/2000/svg">
<g clip-path="url(#clip0_155_3405)">
<path d="M26.1195 0H4.00476C2.06049 0 0.484375 1.62176 0.484375 3.62235V26.3776C0.484375 28.3782 2.06049 30 4.00476 30H26.1195C28.0638 30 29.6399 28.3782 29.6399 26.3776V3.62235C29.6399 1.62176 28.0638 0 26.1195 0Z" fill="#111010"/>
<path d="M25.1315 10.2744H7.00268C5.89439 10.2744 4.99609 11.3421 4.99609 12.6589V21.7793C4.99609 23.0964 5.89458 24.164 7.00287 24.164H23.1249C24.2332 24.164 25.1317 23.0964 25.1317 21.7793V10.2744H25.1315Z" fill="white"/>
<path d="M23.7403 6.35645H19.3323C18.5642 6.35645 17.9414 7.09645 17.9414 8.00939V9.03194H25.1312V8.00939C25.1314 7.09664 24.5086 6.35645 23.7403 6.35645Z" fill="white"/>
</g>
<defs>
<clipPath id="clip0_155_3405">
<rect width="29.1555" height="30" fill="white" transform="translate(0.484375)"/>
</clipPath>
</defs>
</svg>
