<svg preserveAspectRatio="xMidYMid meet" data-bbox="20.5 28.5 159 143" viewBox="20.5 28.5 159 143" height="50" width="50" xmlns="http://www.w3.org/2000/svg" data-type="shape" role="presentation" aria-hidden="true" aria-label="">
    <g>
        <path d="M166.655 38.469c-9.299-7.81-18.359-9.983-30.39-9.969-12.771 1.106-23.826 7.345-36.266 23.11C87.56 35.845 76.505 29.606 63.734 28.5c-12.031-.014-21.092 2.159-30.391 9.969C27.331 43.52 20.5 56.93 20.5 69.71c.16 25.712 18.072 64.364 76.958 100.312l2.431 1.478.111-.066.111.066 2.431-1.478c58.886-35.948 76.798-74.6 76.958-100.312 0-12.78-6.832-26.19-12.845-31.241z"></path>
    </g>
</svg>