<svg width="30" height="30" viewBox="0 0 30 30" fill="none" xmlns="http://www.w3.org/2000/svg">
<g clip-path="url(#clip0_155_3350)">
<path d="M26.3776 0H3.62235C1.62176 0 0 1.62176 0 3.62235V26.3776C0 28.3782 1.62176 30 3.62235 30H26.3776C28.3782 30 30 28.3782 30 26.3776V3.62235C30 1.62176 28.3782 0 26.3776 0Z" fill="#111010"/>
<path d="M21.5148 10.2495H20.223C20.223 7.37045 17.8808 5.02809 15.0016 5.02809C12.1224 5.02809 9.78005 7.37045 9.78005 10.2495H8.48828C8.48828 6.65809 11.41 3.73633 15.0014 3.73633C18.593 3.73633 21.5148 6.65809 21.5148 10.2495Z" fill="white"/>
<path d="M21.0127 11.5547H8.98834C7.93128 11.5547 7.07422 12.3286 7.07422 13.2833V24.1423C7.07422 25.097 7.93128 25.871 8.98834 25.871H21.0127C22.0697 25.871 22.9268 25.097 22.9268 24.1423V13.2833C22.9268 12.3288 22.0697 11.5547 21.0127 11.5547ZM18.665 18.438L14.2472 22.8174C14.2139 22.8504 14.1689 22.8688 14.1221 22.8688H12.7215C12.5634 22.8688 12.4842 22.6776 12.596 22.5659L15.5025 19.6592C15.6142 19.5474 15.5352 19.3563 15.377 19.3563H11.4581C11.2999 19.3563 11.2209 19.1651 11.3327 19.0533L15.8056 14.5802C15.7764 14.551 16.7576 14.5559 17.3417 14.5616C17.4989 14.5631 17.5762 14.7533 17.465 14.8645L14.4981 17.8314C14.3864 17.9431 14.4654 18.1343 14.6236 18.1343H18.5399C18.6987 18.1343 18.7776 18.3263 18.665 18.438Z" fill="white"/>
</g>
<defs>
<clipPath id="clip0_155_3350">
<rect width="30" height="30" fill="white"/>
</clipPath>
</defs>
</svg>
