<svg width="30" height="30" viewBox="0 0 30 30" fill="none" xmlns="http://www.w3.org/2000/svg">
<g clip-path="url(#clip0_155_3342)">
<path d="M26.3776 0H3.62235C1.62176 0 0 1.62176 0 3.62235V26.3776C0 28.3782 1.62176 30 3.62235 30H26.3776C28.3782 30 30 28.3782 30 26.3776V3.62235C30 1.62176 28.3782 0 26.3776 0Z" fill="#111010"/>
<path d="M19.7686 8.71191H10.2294C9.82666 8.71191 9.44044 8.87189 9.15568 9.15665C8.87091 9.44141 8.71094 9.82763 8.71094 10.2303V19.7696C8.71094 20.1723 8.87091 20.5585 9.15568 20.8433C9.44044 21.128 9.82666 21.288 10.2294 21.288H19.7686C20.1713 21.288 20.5575 21.128 20.8423 20.8433C21.127 20.5585 21.287 20.1723 21.287 19.7696V10.2303C21.287 9.82763 21.127 9.44141 20.8423 9.15665C20.5575 8.87189 20.1713 8.71191 19.7686 8.71191Z" fill="white"/>
<path d="M5.70447 2.97818L2.37271 6.31014C2.09389 6.58896 2.29134 7.06582 2.68585 7.06582H6.01761C6.07575 7.06582 6.13333 7.05437 6.18704 7.03212C6.24076 7.00987 6.28957 6.97726 6.33068 6.93615C6.37179 6.89504 6.4044 6.84623 6.42665 6.79251C6.4489 6.73879 6.46036 6.68122 6.46036 6.62308V3.29131C6.46016 2.8968 5.9833 2.69935 5.70447 2.97818Z" fill="white"/>
<path d="M24.2949 2.97818L27.6267 6.30994C27.9055 6.58877 27.7081 7.06563 27.3136 7.06563H23.9818C23.9237 7.06563 23.8661 7.05418 23.8124 7.03193C23.7587 7.00968 23.7099 6.97706 23.6687 6.93595C23.6276 6.89484 23.595 6.84603 23.5728 6.79232C23.5505 6.7386 23.5391 6.68103 23.5391 6.62288V3.29131C23.5393 2.8968 24.0161 2.69935 24.2949 2.97818Z" fill="white"/>
<path d="M5.70447 27.021L2.37271 23.6893C2.09389 23.4105 2.29134 22.9336 2.68585 22.9336H6.01761C6.07575 22.9336 6.13333 22.945 6.18704 22.9673C6.24076 22.9895 6.28957 23.0222 6.33068 23.0633C6.37179 23.1044 6.4044 23.1532 6.42665 23.2069C6.4489 23.2606 6.46036 23.3182 6.46036 23.3763V26.7081C6.46016 27.1024 5.9833 27.2999 5.70447 27.021Z" fill="white"/>
<path d="M24.2949 27.021L27.6267 23.6893C27.9055 23.4105 27.7081 22.9336 27.3136 22.9336H23.9818C23.8644 22.9336 23.7518 22.9802 23.6687 23.0633C23.5857 23.1463 23.5391 23.2589 23.5391 23.3763V26.7081C23.5393 27.1024 24.0161 27.2999 24.2949 27.021Z" fill="white"/>
</g>
<defs>
<clipPath id="clip0_155_3342">
<rect width="30" height="30" fill="white"/>
</clipPath>
</defs>
</svg>