<svg width="30" height="30" viewBox="0 0 30 30" fill="none" xmlns="http://www.w3.org/2000/svg">
<g clip-path="url(#clip0_155_3355)">
<path d="M26.3776 0H3.62235C1.62176 0 0 1.62176 0 3.62235V26.3776C0 28.3782 1.62176 30 3.62235 30H26.3776C28.3782 30 30 28.3782 30 26.3776V3.62235C30 1.62176 28.3782 0 26.3776 0Z" fill="#111010"/>
<path d="M16.7518 19.0068V22.4199C16.7518 23.5564 15.8271 24.4811 14.6906 24.4811H7.57826C6.44179 24.4811 5.51708 23.5566 5.51708 22.4199V15.3077C5.51708 14.1713 6.44179 13.2466 7.57826 13.2466H14.6906C15.8271 13.2466 16.7518 14.1711 16.7518 15.3077V15.7295H18.1243V15.3077C18.1243 13.4144 16.5841 11.874 14.6906 11.874H7.57826C5.68492 11.874 4.14453 13.4144 4.14453 15.3077V22.4199C4.14453 24.3132 5.68473 25.8536 7.57826 25.8536H14.6906C16.5839 25.8536 18.1243 24.3132 18.1243 22.4199V19.0068H16.7518Z" fill="white"/>
<path d="M22.4211 4.14648H15.3087C13.4154 4.14648 11.875 5.68668 11.875 7.58001V10.9222H13.2475V7.58001C13.2475 6.44354 14.1723 5.51903 15.3087 5.51903H22.4209C23.5574 5.51903 24.4821 6.44354 24.4821 7.58001V14.6924C24.4821 15.8288 23.5574 16.7535 22.4209 16.7535H15.3087C14.1723 16.7535 13.2475 15.829 13.2475 14.6924V14.1994H11.875V14.6924C11.875 16.5857 13.4152 18.1261 15.3087 18.1261H22.4209C24.3142 18.1261 25.8546 16.5857 25.8546 14.6924V7.58001C25.8546 5.68668 24.3144 4.14648 22.4211 4.14648Z" fill="white"/>
</g>
<defs>
<clipPath id="clip0_155_3355">
<rect width="30" height="30" fill="white"/>
</clipPath>
</defs>
</svg>