<svg width="30" height="30" viewBox="0 0 30 30" fill="none" xmlns="http://www.w3.org/2000/svg">
<g clip-path="url(#clip0_155_3410)">
<path d="M25.8421 0H3.72741C1.78314 0 0.207031 1.62176 0.207031 3.62235V26.3776C0.207031 28.3782 1.78314 30 3.72741 30H25.8421C27.7864 30 29.3625 28.3782 29.3625 26.3776V3.62235C29.3625 1.62176 27.7864 0 25.8421 0Z" fill="#111010"/>
<path d="M15.5165 10.4525L4.63442 24.5144C4.18965 25.1289 4.94141 25.9023 5.53843 25.4446L19.2045 14.2474C19.7168 13.8548 19.7713 13.0858 19.3195 12.6211L17.0968 10.334C16.9905 10.2247 16.8625 10.1402 16.7216 10.0862C16.5807 10.0323 16.4302 10.0102 16.2803 10.0214C16.1304 10.0326 15.9846 10.0769 15.8528 10.1513C15.721 10.2257 15.6063 10.3284 15.5165 10.4525Z" fill="white"/>
<path d="M23.1918 10.4762C24.2991 9.33679 25.0698 4.41797 25.0698 4.41797C25.0698 4.41797 20.2892 5.21111 19.1821 6.35032C18.0747 7.48973 18.0747 9.33699 19.1821 10.4762C20.2892 11.6154 22.0845 11.6154 23.1918 10.4762Z" fill="white"/>
</g>
<defs>
<clipPath id="clip0_155_3410">
<rect width="29.1555" height="30" fill="white" transform="translate(0.207031)"/>
</clipPath>
</defs>
</svg>
