<svg width="30" height="30" viewBox="0 0 30 30" fill="none" xmlns="http://www.w3.org/2000/svg">
<g clip-path="url(#clip0_155_3397)">
<path d="M26.0179 0H3.9032C1.95892 0 0.382812 1.62176 0.382812 3.62235V26.3776C0.382812 28.3782 1.95892 30 3.9032 30H26.0179C27.9622 30 29.5383 28.3782 29.5383 26.3776V3.62235C29.5383 1.62176 27.9622 0 26.0179 0Z" fill="#111010"/>
<path d="M17.2413 3.40723H12.6793C12.584 3.4072 12.4895 3.42651 12.4014 3.46406C12.3133 3.5016 12.2332 3.55664 12.1658 3.62604C12.0983 3.69543 12.0448 3.77782 12.0084 3.86849C11.9719 3.95916 11.9531 4.05634 11.9531 4.15448V8.8486C11.9531 8.94674 11.9719 9.04392 12.0084 9.13459C12.0448 9.22527 12.0983 9.30765 12.1658 9.37705C12.2332 9.44644 12.3133 9.50148 12.4014 9.53902C12.4895 9.57657 12.584 9.59588 12.6793 9.59585H17.2413C17.3367 9.59588 17.4311 9.57657 17.5193 9.53902C17.6074 9.50148 17.6875 9.44644 17.7549 9.37705C17.8223 9.30765 17.8758 9.22527 17.9123 9.13459C17.9488 9.04392 17.9676 8.94674 17.9675 8.8486V4.15448C17.9676 4.05634 17.9488 3.95916 17.9123 3.86849C17.8758 3.77782 17.8223 3.69543 17.7549 3.62604C17.6875 3.55664 17.6074 3.5016 17.5193 3.46406C17.4311 3.42651 17.3367 3.4072 17.2413 3.40723Z" fill="white"/>
<path d="M17.2413 11.9053H12.6793C12.584 11.9052 12.4895 11.9246 12.4014 11.9621C12.3133 11.9996 12.2332 12.0547 12.1658 12.1241C12.0983 12.1935 12.0448 12.2759 12.0084 12.3665C11.9719 12.4572 11.9531 12.5544 11.9531 12.6525V17.3466C11.9531 17.4448 11.9719 17.542 12.0084 17.6326C12.0448 17.7233 12.0983 17.8057 12.1658 17.8751C12.2332 17.9445 12.3133 17.9995 12.4014 18.0371C12.4895 18.0746 12.584 18.0939 12.6793 18.0939H17.2413C17.3367 18.0939 17.4311 18.0746 17.5193 18.0371C17.6074 17.9995 17.6875 17.9445 17.7549 17.8751C17.8223 17.8057 17.8758 17.7233 17.9123 17.6326C17.9488 17.542 17.9676 17.4448 17.9675 17.3466V12.6525C17.9676 12.5544 17.9488 12.4572 17.9123 12.3665C17.8758 12.2759 17.8223 12.1935 17.7549 12.1241C17.6875 12.0547 17.6074 11.9996 17.5193 11.9621C17.4311 11.9246 17.3367 11.9052 17.2413 11.9053Z" fill="white"/>
<path d="M17.2413 20.4043H12.6793C12.584 20.4043 12.4895 20.4236 12.4014 20.4611C12.3133 20.4987 12.2332 20.5537 12.1658 20.6231C12.0983 20.6925 12.0448 20.7749 12.0084 20.8656C11.9719 20.9562 11.9531 21.0534 11.9531 21.1516V25.8457C11.9531 25.9438 11.9719 26.041 12.0084 26.1317C12.0448 26.2223 12.0983 26.3047 12.1658 26.3741C12.2332 26.4435 12.3133 26.4986 12.4014 26.5361C12.4895 26.5736 12.584 26.593 12.6793 26.5929H17.2413C17.3367 26.593 17.4311 26.5736 17.5193 26.5361C17.6074 26.4986 17.6875 26.4435 17.7549 26.3741C17.8223 26.3047 17.8758 26.2223 17.9123 26.1317C17.9488 26.041 17.9676 25.9438 17.9675 25.8457V21.1516C17.9676 21.0534 17.9488 20.9562 17.9123 20.8656C17.8758 20.7749 17.8223 20.6925 17.7549 20.6231C17.6875 20.5537 17.6074 20.4987 17.5193 20.4611C17.4311 20.4236 17.3367 20.4043 17.2413 20.4043Z" fill="white"/>
<path d="M26.2254 17.3466V12.6525C26.2254 12.5544 26.2066 12.4572 26.1701 12.3665C26.1336 12.2759 26.0801 12.1935 26.0127 12.1241C25.9453 12.0547 25.8652 11.9996 25.7771 11.9621C25.689 11.9246 25.5945 11.9052 25.4991 11.9053H20.9372C20.8418 11.9052 20.7473 11.9246 20.6592 11.9621C20.5711 11.9996 20.491 12.0547 20.4236 12.1241C20.3561 12.1935 20.3027 12.2759 20.2662 12.3665C20.2297 12.4572 20.2109 12.5544 20.2109 12.6525V17.3466C20.2109 17.4448 20.2297 17.542 20.2662 17.6326C20.3027 17.7233 20.3561 17.8057 20.4236 17.8751C20.491 17.9445 20.5711 17.9995 20.6592 18.0371C20.7473 18.0746 20.8418 18.0939 20.9372 18.0939H25.4991C25.5945 18.0939 25.689 18.0746 25.7771 18.0371C25.8652 17.9995 25.9453 17.9445 26.0127 17.8751C26.0801 17.8057 26.1336 17.7233 26.1701 17.6326C26.2066 17.542 26.2254 17.4448 26.2254 17.3466Z" fill="white"/>
<path d="M9.70973 17.3466V12.6525C9.70976 12.5544 9.69099 12.4572 9.6545 12.3665C9.61801 12.2759 9.56452 12.1935 9.49708 12.1241C9.42964 12.0547 9.34957 11.9996 9.26145 11.9621C9.17333 11.9246 9.07889 11.9052 8.98351 11.9053H4.42153C4.32616 11.9052 4.23171 11.9246 4.14359 11.9621C4.05547 11.9996 3.9754 12.0547 3.90796 12.1241C3.84052 12.1935 3.78703 12.2759 3.75054 12.3665C3.71405 12.4572 3.69529 12.5544 3.69531 12.6525V17.3466C3.69529 17.4448 3.71405 17.542 3.75054 17.6326C3.78703 17.7233 3.84052 17.8057 3.90796 17.8751C3.9754 17.9445 4.05547 17.9995 4.14359 18.0371C4.23171 18.0746 4.32616 18.0939 4.42153 18.0939H8.98351C9.07889 18.0939 9.17333 18.0746 9.26145 18.0371C9.34957 17.9995 9.42964 17.9445 9.49708 17.8751C9.56452 17.8057 9.61801 17.7233 9.6545 17.6326C9.69099 17.542 9.70976 17.4448 9.70973 17.3466Z" fill="white"/>
</g>
<defs>
<clipPath id="clip0_155_3397">
<rect width="29.1555" height="30" fill="white" transform="translate(0.382812)"/>
</clipPath>
</defs>
</svg>
